<?xml version="1.0" standalone="no"?><!DOCTYPE svg PUBLIC "-//W3C//DTD SVG 1.1//EN" "http://www.w3.org/Graphics/SVG/1.1/DTD/svg11.dtd"><svg class="icon" width="512px" height="512.00px" viewBox="0 0 1024 1024" version="1.1" xmlns="http://www.w3.org/2000/svg"><path d="M579.765383 676.255994c-29.368888 0-60.468187-4.260024-95.062076-13.030781-97.230462-24.639167-229.641167-98.382705-310.372863-309.452911l-97.43717-48.718585 97.482195-51.305503c31.723515-109.701494 109.360733-180.25334 199.031009-180.25334 18.950607 0 38.454824 3.069919 57.971319 9.118682 80.963986 25.089421 120.274294 77.694523 154.958234 124.109646 39.304168 52.598962 73.377194 98.202603 158.813029 105.879446l84.386946-101.985766-18.377556 95.564519c28.525684-11.06194 60.538795-28.609595 94.03263-46.967708l41.916668-22.921036-11.885701 32.772404c-24.960485 68.833715-51.080376 109.959368-80.93738 147.545404 20.282952-4.3951 41.897226-7.966439 54.702879-4.696975l19.053961 4.825912-11.704576 15.797801C799.181675 590.602196 710.843744 676.255994 579.765383 676.255994zM134.627187 304.449967l60.72606 30.366611 1.821485 4.845355c42.25129 112.668059 127.552048 255.830643 294.003034 298.018487 32.451086 8.223289 61.434188 12.220323 88.588641 12.220323 114.012683 0 195.053418-74.033134 299.04077-211.230865-9.144264 1.505283-19.085684 3.712555-27.785833 5.649674-12.084223 2.690272-22.515806 5.006014-29.709649 5.379521l-30.623461 1.583055 19.922748-23.306822c33.828456-39.568181 60.900022-73.91136 86.696548-134.424572-35.648918 19.330254-69.354578 36.498262-99.8051 45.01831l-20.514219 5.739724 7.219425-37.566594-27.400047 33.114189-6.718005-0.430812c-102.468766-6.653537-144.359852-62.708204-184.867428-116.921943-33.854039-45.307905-68.865437-92.15998-141.643997-114.714671-16.994046-5.263887-33.873482-7.933693-50.172703-7.933693-78.936817 0-147.69276 65.307402-175.157275 166.373215l-1.499144 5.53404L134.627187 304.449967z"  /><path d="M341.668637 374.042975 341.668637 374.042975c-1.88493 0-3.784186-0.051165-5.688559-0.167822-25.662473-1.493004-49.200562-12.895705-66.285682-32.097022-17.084097-19.208481-25.668613-43.918255-24.169469-69.580728 3.069919-52.701293 48.441269-93.77578 101.670587-90.455151 52.971445 3.095501 93.549629 48.705282 90.461291 101.67775C434.691263 334.236364 392.523885 374.042975 341.668637 374.042975zM341.507978 194.754612c-43.88551 0-80.268138 34.355459-82.829474 78.215386-1.293459 22.148439 6.113231 43.474141 20.862143 60.043514 14.742772 16.576537 35.063587 26.415626 57.212026 27.708062 45.957705 2.670829 85.08791-32.586163 87.7526-78.07417 2.663666-45.713134-32.361035-85.075631-78.08031-87.7526C344.776418 194.799638 343.136058 194.754612 341.507978 194.754612z"  /><path d="M315.052442 280.877085m-20.020986 0a19.565 19.565 0 1 0 40.041972 0 19.565 19.565 0 1 0-40.041972 0Z"  /><path d="M567.011918 679.083389 578.712401 700.110285 578.712401 766.003018 605.808526 702.775998 593.369216 679.083389Z"  /><path d="M461.582727 950.504102c4.774747-31.895431 11.18883-63.322188 18.026562-94.629217l0.503467-2.305509 2.629897-2.248204c16.730033-14.299681 33.534767-28.500101 50.760081-42.139749 16.98893-13.953803 34.620495-27.052123 51.993165-40.496319l20.833491-16.122189 0.161682 26.620287c0.079818 13.178137-0.234337 26.356274-0.331551 39.534412-0.028653 13.178137-0.51984 26.356274-0.986467 39.534412l-14.663978-11.449773c17.667382-4.00522 35.449373-7.55507 53.245691-11.04352l8.844435-1.733481 2.476401 7.67889c5.76633 17.880229 11.06501 35.935444 16.271592 54.024427 5.127787 18.119683 10.05296 36.31509 14.273075 54.774511-8.958022-16.682961-17.210987-33.629935-25.26236-50.653657-7.972579-17.052374-15.852036-34.139541-23.263843-51.402717l11.317767 5.943362c-17.34504 5.296633-34.704406 10.532891-52.178383 15.312754l-14.124695 3.864004-0.542352-15.315824c-0.466628-13.178137-0.958838-26.356274-0.986467-39.534412-0.097214-13.178137-0.411369-26.356274-0.331551-39.534412l20.993127 10.497075c-17.769712 12.913101-35.281551 26.172079-53.43398 38.57455-17.917068 12.716626-36.255739 24.87248-54.667064 36.930097l3.130294-4.549619C485.535255 890.827955 474.379171 920.900877 461.582727 950.504102z"  /></svg>